<svg width="51" height="51" viewBox="0 0 51 51" fill="none" xmlns="http://www.w3.org/2000/svg">
<path d="M48.9186 25.3655C48.9186 30.0241 47.5371 34.578 44.949 38.4514C42.3608 42.3249 38.6822 45.3438 34.3783 47.1266C30.0744 48.9093 25.3384 49.3758 20.7694 48.467C16.2004 47.5581 12.0034 45.3148 8.70936 42.0207C5.41527 38.7266 3.17197 34.5297 2.26313 29.9607C1.35429 25.3917 1.82074 20.6557 3.60349 16.3518C5.38624 12.0479 8.40521 8.36924 12.2786 5.78109C16.1521 3.19294 20.706 1.81152 25.3646 1.81152V25.3655H48.9186Z" fill="#FF5656" fill-opacity="0.3"/>
<path d="M32.278 16.4878H17.1853C16.3276 16.4878 15.505 16.8386 14.8984 17.4629C14.2919 18.0873 13.9512 18.9341 13.9512 19.8171V30.9146C13.9512 31.7976 14.2919 32.6444 14.8984 33.2688C15.505 33.8931 16.3276 34.2439 17.1853 34.2439H32.278C33.1358 34.2439 33.9584 33.8931 34.5649 33.2688C35.1714 32.6444 35.5121 31.7976 35.5121 30.9146V19.8171C35.5121 18.9341 35.1714 18.0873 34.5649 17.4629C33.9584 16.8386 33.1358 16.4878 32.278 16.4878ZM32.278 18.7073L25.2707 23.6679C25.1068 23.7653 24.9209 23.8166 24.7317 23.8166C24.5424 23.8166 24.3565 23.7653 24.1926 23.6679L17.1853 18.7073H32.278Z" fill="#FF5656"/>
</svg>
