<svg width="51" height="51" viewBox="0 0 51 51" fill="none" xmlns="http://www.w3.org/2000/svg">
<path d="M48.9186 25.3655C48.9186 30.0241 47.5371 34.578 44.949 38.4514C42.3608 42.3249 38.6822 45.3438 34.3783 47.1266C30.0744 48.9093 25.3384 49.3758 20.7694 48.467C16.2004 47.5581 12.0034 45.3148 8.70936 42.0207C5.41527 38.7266 3.17197 34.5297 2.26313 29.9607C1.35429 25.3917 1.82074 20.6557 3.60349 16.3518C5.38624 12.0479 8.40521 8.36924 12.2786 5.78109C16.1521 3.19294 20.706 1.81152 25.3646 1.81152V25.3655H48.9186Z" fill="#FF5656" fill-opacity="0.3"/>
<path d="M30.439 24.0975V20.2926H26.6341V17.756H30.439V13.9512H32.9756V17.756H36.7804V20.2926H32.9756V24.0975H30.439ZM35.4487 36.7804C32.8065 36.7804 30.1908 36.2097 27.6018 35.0682C25.0128 33.9268 22.661 32.2991 20.5463 30.1853C18.4316 28.0715 16.804 25.7252 15.6634 23.1463C14.5227 20.5674 13.952 17.9463 13.9512 15.2829V13.9512H21.4341L22.6073 20.3243L18.9926 23.9707C19.4577 24.7951 19.9756 25.5772 20.5463 26.317C21.117 27.0569 21.73 27.7439 22.3853 28.378C22.9983 28.991 23.6697 29.5778 24.3994 30.1384C25.1291 30.699 25.9162 31.2219 26.7609 31.7073L30.439 28.0292L36.7804 29.3292V36.7804H35.4487Z" fill="#FF5656"/>
</svg>
