<svg width="51" height="51" viewBox="0 0 51 51" fill="none" xmlns="http://www.w3.org/2000/svg">
<path d="M48.9186 25.3655C48.9186 30.0241 47.5371 34.578 44.949 38.4514C42.3608 42.3249 38.6822 45.3438 34.3783 47.1266C30.0744 48.9093 25.3384 49.3758 20.7694 48.467C16.2004 47.5581 12.0034 45.3148 8.70936 42.0207C5.41527 38.7266 3.17197 34.5297 2.26313 29.9607C1.35429 25.3917 1.82074 20.6557 3.60349 16.3518C5.38624 12.0479 8.40521 8.36924 12.2786 5.78109C16.1521 3.19294 20.706 1.81152 25.3646 1.81152V25.3655H48.9186Z" fill="#FF5656" fill-opacity="0.3"/>
<g clip-path="url(#clip0_2_652)">
<path d="M24.4958 32.4604C24.6754 32.7379 24.9909 32.9229 25.35 32.9229C25.7091 32.9229 26.0247 32.7379 26.2097 32.4604L32.2055 23.2001C33.0107 21.9541 33.4787 20.583 33.4787 18.9943C33.4732 14.4022 29.8659 10.8711 25.35 10.8711C20.8341 10.8711 17.2268 14.4022 17.2268 18.9943C17.2268 20.583 17.6948 21.9541 18.5 23.2001L24.4958 32.4604ZM25.35 14.3532C27.9127 14.3532 29.9911 16.4316 29.9911 18.9943C29.9911 21.5569 27.9127 23.6353 25.35 23.6353C22.7874 23.6353 20.709 21.5569 20.709 18.9943C20.709 16.4316 22.7874 14.3532 25.35 14.3532ZM31.3023 28.4722L25.35 36.405L19.3977 28.4722C17.3629 29.5386 16.0625 31.1328 16.0625 32.9229C16.0625 36.1275 20.2193 38.7282 25.35 38.7282C30.4807 38.7282 34.6376 36.1275 34.6376 32.9229C34.6376 31.1328 33.3372 29.5386 31.3023 28.4722Z" fill="#FF5656"/>
</g>
<defs>
<clipPath id="clip0_2_652">
<rect width="19.0244" height="28.0836" fill="white" transform="translate(15.4004 10.8711)"/>
</clipPath>
</defs>
</svg>
