<svg width="29" height="27" viewBox="0 0 29 27" fill="none" xmlns="http://www.w3.org/2000/svg">
<path d="M13.0494 0.712037C13.3578 -0.237192 14.7008 -0.237191 15.0092 0.712039L17.6147 8.73108C17.7526 9.15559 18.1482 9.443 18.5946 9.443L27.0263 9.443C28.0244 9.443 28.4394 10.7202 27.6319 11.3068L20.8105 16.2629C20.4494 16.5252 20.2983 16.9903 20.4362 17.4148L23.0418 25.4338C23.3502 26.3831 22.2638 27.1724 21.4563 26.5857L14.6349 21.6297C14.2738 21.3673 13.7848 21.3673 13.4237 21.6297L6.6023 26.5857C5.79483 27.1724 4.7084 26.3831 5.01682 25.4338L7.62237 17.4148C7.7603 16.9903 7.6092 16.5252 7.24809 16.2629L0.426684 11.3068C-0.380778 10.7202 0.0342031 9.443 1.03228 9.443L9.464 9.443C9.91035 9.443 10.3059 9.15559 10.4439 8.73108L13.0494 0.712037Z" fill="#E9C63C"/>
</svg>
