<svg width="40" height="40" viewBox="0 0 40 40" fill="none" xmlns="http://www.w3.org/2000/svg">
<path d="M38.5716 20.0001C38.5716 23.6732 37.4824 27.2638 35.4417 30.3179C33.4011 33.3719 30.5006 35.7523 27.1071 37.1579C23.7136 38.5635 19.9795 38.9313 16.377 38.2147C12.7745 37.4981 9.46542 35.7294 6.86816 33.1321C4.2709 30.5349 2.50214 27.2257 1.78556 23.6232C1.06897 20.0207 1.43675 16.2866 2.84238 12.8932C4.248 9.49968 6.62835 6.59922 9.68241 4.55856C12.7365 2.51791 16.3271 1.42871 20.0001 1.42871V20.0001H38.5716Z" fill="#FF5656" fill-opacity="0.3"/>
<path d="M25.45 13H13.55C12.8737 13 12.2251 13.2766 11.7469 13.7688C11.2687 14.2611 11 14.9288 11 15.625V24.375C11 25.0712 11.2687 25.7389 11.7469 26.2312C12.2251 26.7234 12.8737 27 13.55 27H25.45C26.1263 27 26.7749 26.7234 27.2531 26.2312C27.7313 25.7389 28 25.0712 28 24.375V15.625C28 14.9288 27.7313 14.2611 27.2531 13.7688C26.7749 13.2766 26.1263 13 25.45 13ZM25.45 14.75L19.925 18.6613C19.7958 18.738 19.6492 18.7785 19.5 18.7785C19.3508 18.7785 19.2042 18.738 19.075 18.6613L13.55 14.75H25.45Z" fill="#FF5656"/>
</svg>
