<svg width="40" height="40" viewBox="0 0 40 40" fill="none" xmlns="http://www.w3.org/2000/svg">
<path d="M38.5716 20.0001C38.5716 23.6732 37.4824 27.2638 35.4417 30.3179C33.4011 33.3719 30.5006 35.7523 27.1071 37.1579C23.7136 38.5635 19.9795 38.9313 16.377 38.2147C12.7745 37.4981 9.46542 35.7294 6.86816 33.1321C4.2709 30.5349 2.50214 27.2257 1.78556 23.6232C1.06897 20.0207 1.43675 16.2866 2.84238 12.8932C4.248 9.49968 6.62835 6.59922 9.68241 4.55856C12.7365 2.51791 16.3271 1.42871 20.0001 1.42871V20.0001H38.5716Z" fill="#FF5656" fill-opacity="0.3"/>
<g clip-path="url(#clip0_1_271)">
<path d="M19.3134 25.5936C19.455 25.8124 19.7038 25.9583 19.9869 25.9583C20.2701 25.9583 20.5189 25.8124 20.6647 25.5936L25.3922 18.2922C26.0271 17.3098 26.396 16.2288 26.396 14.9761C26.3917 11.3554 23.5475 8.57129 19.9869 8.57129C16.4263 8.57129 13.5821 11.3554 13.5821 14.9761C13.5821 16.2288 13.951 17.3098 14.5859 18.2922L19.3134 25.5936ZM19.9869 11.3168C22.0075 11.3168 23.6462 12.9556 23.6462 14.9761C23.6462 16.9967 22.0075 18.6354 19.9869 18.6354C17.9664 18.6354 16.3276 16.9967 16.3276 14.9761C16.3276 12.9556 17.9664 11.3168 19.9869 11.3168ZM24.6801 22.4491L19.9869 28.7038L15.2938 22.4491C13.6893 23.2899 12.6641 24.5469 12.6641 25.9583C12.6641 28.485 15.9415 30.5356 19.9869 30.5356C24.0323 30.5356 27.3098 28.485 27.3098 25.9583C27.3098 24.5469 26.2845 23.2899 24.6801 22.4491Z" fill="#FF5656"/>
</g>
<defs>
<clipPath id="clip0_1_271">
<rect width="15" height="22.1429" fill="white" transform="translate(12.1426 8.57129)"/>
</clipPath>
</defs>
</svg>
