<svg width="40" height="40" viewBox="0 0 40 40" fill="none" xmlns="http://www.w3.org/2000/svg">
<path d="M38.5716 20.0001C38.5716 23.6732 37.4824 27.2638 35.4417 30.3179C33.4011 33.3719 30.5006 35.7523 27.1071 37.1579C23.7136 38.5635 19.9795 38.9313 16.377 38.2147C12.7745 37.4981 9.46542 35.7294 6.86816 33.1321C4.2709 30.5349 2.50214 27.2257 1.78556 23.6232C1.06897 20.0207 1.43675 16.2866 2.84238 12.8932C4.248 9.49968 6.62835 6.59922 9.68241 4.55856C12.7365 2.51791 16.3271 1.42871 20.0001 1.42871V20.0001H38.5716Z" fill="#FF5656" fill-opacity="0.3"/>
<path d="M24 19V16H21V14H24V11H26V14H29V16H26V19H24ZM27.95 29C25.8667 29 23.8043 28.55 21.763 27.65C19.7217 26.75 17.8673 25.4667 16.2 23.8C14.5327 22.1333 13.2493 20.2833 12.35 18.25C11.4507 16.2167 11.0007 14.15 11 12.05V11H16.9L17.825 16.025L14.975 18.9C15.3417 19.55 15.75 20.1667 16.2 20.75C16.65 21.3333 17.1333 21.875 17.65 22.375C18.1333 22.8583 18.6627 23.321 19.238 23.763C19.8133 24.205 20.434 24.6173 21.1 25L24 22.1L29 23.125V29H27.95Z" fill="#FF5656"/>
</svg>
